<svg width="172" height="259" viewBox="0 0 172 259" fill="none" xmlns="http://www.w3.org/2000/svg">
<path d="M1.5 1.5H170.5V1.77339V2.36251V2.95062V3.53774V4.12387V4.709V5.29315V5.87632V6.45851V7.03973V7.61998V8.19926V8.77758V9.35494V9.93135V10.5068V11.0813V11.6549V12.2275V12.7992V13.37V13.9399V14.5088V15.0768V15.6439V16.2101V16.7753V17.3397V17.9032V18.4658V19.0275V19.5883V20.1482V20.7073V21.2654V21.8227V22.3792V22.9348V23.4895V24.0433V24.5963V25.1485V25.6998V26.2503V26.8V27.3488V27.8968V28.444V28.9903V29.5359V30.0806V30.6245V31.1676V31.71V32.2515V32.7922V33.3322V33.8713V34.4097V34.9473V35.4842V36.0203V36.5556V37.0901V37.6239V38.157V38.6893V39.2208V39.7517V40.2817V40.8111V41.3397V41.8676V42.3948V42.9213V43.447V43.9721V44.4964V45.0201V45.543V46.0653V46.5869V47.1078V47.628V48.1475V48.6664V49.1846V49.7021V50.219V50.7352V51.2508V51.7657V52.28V52.7936V53.3066V53.819V54.3307V54.8418V55.3523V55.8622V56.3715V56.8801V57.3882V57.8957V58.4025V58.9088V59.4145V59.9196V60.4241V60.928V61.4314V61.9342V62.4364V62.9381V63.4392V63.9398V64.4398V64.9393V65.4382V65.9366V66.4345V66.9319V67.4287V67.925V68.4207V68.916V69.4108V69.905V70.3988V70.892V71.3848V71.8771V72.3689V72.8602V73.351V73.8413V74.3312V74.8207V75.3096V75.7981V76.2862V76.7738V77.261V77.7477V78.234V78.7198V79.2052V79.6902V80.1748V80.659V81.1427V81.626V82.109V82.5915V83.0736V83.5554V84.0367V84.5177V84.9982V85.4784V85.9583V86.4377V86.9168V87.3956V87.8739V88.352V88.8296V89.307V89.784V90.2606V90.7369V91.2129V91.6886V92.1639V92.6389V93.1136V93.588V94.0621V94.5359V95.0094V95.4826V95.9555V96.4281V96.9004V97.3725V97.8443V98.3158V98.787V99.258V99.7288V100.199V100.669V101.139V101.609V102.079V102.548V103.017V103.486V103.954V104.423V104.891V105.359V105.827V106.294V106.761V107.229V107.695V108.162V108.629V109.095V109.561V110.027V110.493V110.959V111.425V111.89V112.355V112.82V113.285V113.75V114.215V114.679V115.144V115.608V116.072V116.536V117V117.464V117.928V118.392V118.855V119.319V119.782V120.245V120.709V121.172V121.635V122.098V122.561V123.024V123.487V123.949V124.412V124.875V125.337V125.8V126.263V126.725V127.188V127.65V128.113V128.575V129.038V129.5V129.962V130.425V130.887V131.35V131.812V132.275V132.737V133.2V133.663V134.125V134.588V135.051V135.513V135.976V136.439V136.902V137.365V137.828V138.291V138.755V139.218V139.681V140.145V140.608V141.072V141.536V142V142.464V142.928V143.392V143.856V144.321V144.785V145.25V145.715V146.18V146.645V147.11V147.575V148.041V148.507V148.973V149.439V149.905V150.371V150.838V151.305V151.771V152.239V152.706V153.173V153.641V154.109V154.577V155.046V155.514V155.983V156.452V156.921V157.391V157.861V158.331V158.801V159.271V159.742V160.213V160.684V161.156V161.628V162.1V162.572V163.045V163.517V163.991V164.464V164.938V165.412V165.886V166.361V166.836V167.311V167.787V168.263V168.739V169.216V169.693V170.17V170.648V171.126V171.604V172.083V172.562V173.042V173.522V174.002V174.482V174.963V175.445V175.926V176.409V176.891V177.374V177.857V178.341V178.825V179.31V179.795V180.28V180.766V181.252V181.739V182.226V182.714V183.202V183.69V184.179V184.669V185.159V185.649V186.14V186.631V187.123V187.615V188.108V188.601V189.095V189.589V190.084V190.579V191.075V191.571V192.068V192.565V193.063V193.562V194.061V194.56V195.06V195.561V196.062V196.564V197.066V197.569V198.072V198.576V199.08V199.586V200.091V200.597V201.104V201.612V202.12V202.629V203.138V203.648V204.158V204.669V205.181V205.693V206.206V206.72V207.234V207.749V208.265V208.781V209.298V209.815V210.334V210.852V211.372V211.892V212.413V212.935V213.457V213.98V214.504V215.028V215.553V216.079V216.605V217.132V217.66V218.189V218.718V219.248V219.779V220.311V220.843V221.376V221.91V222.444V222.98V223.516V224.053V224.59V225.129V225.668V226.208V226.749V227.29V227.832V228.375V228.919V229.464V230.01V230.556V231.103V231.651V232.2V232.75V233.3V233.851V234.404V234.957V235.511V236.065V236.621V237.177V237.735V238.293V238.852V239.412V239.973V240.534V241.097V241.66V242.225V242.79V243.356V243.923V244.491V245.06V245.63V246.201V246.772V247.345V247.919V248.493V249.069V249.645V250.222V250.801V251.38V251.96V252.541V253.124V253.707V254.291V254.876V255.462V256.049V256.637V257.227V257.5H1.5V1.5Z" stroke="#B8FFB5" stroke-width="3"/>
</svg>
